<mxfile host="Electron" agent="Mozilla/5.0 (X11; Linux x86_64) AppleWebKit/537.36 (KHTML, like Gecko) draw.io/28.1.2 Chrome/138.0.7204.243 Electron/37.4.0 Safari/537.36" version="28.1.2">
  <diagram id="-175AL0abnjn761s82y0" name="Page-1">
    <mxGraphModel dx="404" dy="-583" grid="1" gridSize="1" guides="1" tooltips="1" connect="1" arrows="1" fold="1" page="1" pageScale="1" pageWidth="1169" pageHeight="827" math="0" shadow="0">
      <root>
        <mxCell id="0" />
        <mxCell id="1" style="" parent="0" />
        <mxCell id="ZQtyk6yFxOkWBHBf2kEJ-1" value="&lt;font size=&quot;1&quot;&gt;&amp;nbsp; &amp;nbsp; &amp;nbsp; &amp;nbsp; &amp;nbsp; &amp;nbsp; &amp;nbsp; &amp;nbsp; &amp;nbsp; &amp;nbsp; &amp;nbsp; &amp;nbsp; &amp;nbsp; &amp;nbsp; &amp;nbsp;Líneas obsoletas&lt;br&gt;&lt;/font&gt;&lt;font size=&quot;1&quot;&gt;03 Voltimetro analogico&lt;br&gt;10 GND cuadro antiguo&lt;br&gt;&lt;/font&gt;" style="whiteSpace=wrap;html=1;strokeColor=#000000;gradientColor=none;fontFamily=Helvetica;fontSize=4;fontColor=#000000;fillColor=#FFFFFF;align=left;verticalAlign=top;" parent="1" vertex="1">
          <mxGeometry x="860" y="1346" width="268" height="52" as="geometry" />
        </mxCell>
        <mxCell id="ZQtyk6yFxOkWBHBf2kEJ-2" value="&lt;font size=&quot;1&quot;&gt;&amp;nbsp; &amp;nbsp; &amp;nbsp; &amp;nbsp; &amp;nbsp; &amp;nbsp; &amp;nbsp; &amp;nbsp; &amp;nbsp; &amp;nbsp; &amp;nbsp; &amp;nbsp; &amp;nbsp; &amp;nbsp; &amp;nbsp;&lt;span style=&quot;white-space: pre&quot;&gt;&#x9;&lt;/span&gt;&lt;span style=&quot;white-space: pre&quot;&gt;&#x9;&lt;/span&gt;TRANSFORMADORES&lt;br&gt;&lt;/font&gt;&lt;span style=&quot;font-size: x-small&quot;&gt;&lt;br&gt;Luz salón cocina&amp;nbsp; &amp;nbsp; &amp;nbsp; &amp;nbsp; &amp;nbsp; &amp;nbsp; &amp;nbsp;24~12V&amp;nbsp; &amp;nbsp; &amp;nbsp; &amp;nbsp;4x 4A&lt;span style=&quot;white-space: pre&quot;&gt;&#x9;&lt;/span&gt;&lt;span style=&quot;white-space: pre&quot;&gt;&#x9;&lt;/span&gt;&lt;span style=&quot;white-space: pre&quot;&gt;&#x9;&lt;/span&gt;Pendiente COMPRAR&lt;br&gt;&lt;/span&gt;&lt;font size=&quot;1&quot;&gt;Claraboya Salon&lt;span style=&quot;white-space: pre&quot;&gt;&#x9;&lt;span style=&quot;white-space: pre&quot;&gt;&#x9;&lt;/span&gt;&lt;/span&gt;24~12V&lt;span style=&quot;white-space: pre&quot;&gt;&#x9;&lt;/span&gt;&lt;span style=&quot;white-space: pre&quot;&gt;&#x9;&lt;/span&gt;4A&lt;span style=&quot;white-space: pre&quot;&gt;&#x9;&lt;/span&gt;&lt;span style=&quot;white-space: pre&quot;&gt;&#x9;&lt;/span&gt;&lt;span style=&quot;white-space: pre&quot;&gt;&#x9;&lt;/span&gt;Pendiente recibir&lt;br&gt;Claraboya Pasillo&lt;span style=&quot;white-space: pre&quot;&gt;&#x9;&lt;span style=&quot;white-space: pre&quot;&gt;&#x9;&lt;/span&gt;&lt;/span&gt;24~12V&lt;span style=&quot;white-space: pre&quot;&gt;&#x9;&lt;/span&gt;&lt;span style=&quot;white-space: pre&quot;&gt;&#x9;&lt;/span&gt;4A&lt;span style=&quot;white-space: pre&quot;&gt;&#x9;&lt;/span&gt;&lt;span style=&quot;white-space: pre&quot;&gt;&#x9;&lt;/span&gt;&lt;span style=&quot;white-space: pre&quot;&gt;&#x9;&lt;/span&gt;Pendiente COMPRAR&lt;br&gt;Luz capuchina&lt;span style=&quot;white-space: pre&quot;&gt;&#x9;&lt;/span&gt;&lt;span style=&quot;white-space: pre&quot;&gt;&#x9;&lt;span style=&quot;white-space: pre&quot;&gt;&#x9;&lt;/span&gt;&lt;/span&gt;24~12V&lt;span style=&quot;white-space: pre&quot;&gt;&#x9;&lt;/span&gt;&amp;nbsp; &amp;nbsp;2x 4A&lt;span style=&quot;white-space: pre&quot;&gt;&#x9;&lt;/span&gt;&lt;span style=&quot;white-space: pre&quot;&gt;&#x9;&lt;/span&gt;&lt;span style=&quot;white-space: pre&quot;&gt;&#x9;&lt;/span&gt;Pendiente COMPRAR&lt;br&gt;Cámara lateral&lt;span style=&quot;white-space: pre&quot;&gt;&#x9;&lt;/span&gt;&lt;span style=&quot;white-space: pre&quot;&gt;&#x9;&lt;/span&gt;24~12V&lt;span style=&quot;white-space: pre&quot;&gt;&#x9;&lt;/span&gt;&lt;span style=&quot;white-space: pre&quot;&gt;&#x9;&lt;/span&gt;3A&lt;span style=&quot;white-space: pre&quot;&gt;&#x9;&lt;/span&gt;&lt;span style=&quot;white-space: pre&quot;&gt;&#x9;&lt;/span&gt;&lt;span style=&quot;white-space: pre&quot;&gt;&#x9;&lt;/span&gt;Pendiente recibir&lt;br&gt;Cámara Trasera&lt;span style=&quot;white-space: pre&quot;&gt;&#x9;&lt;/span&gt;&lt;span style=&quot;white-space: pre&quot;&gt;&#x9;&lt;/span&gt;24~12V&lt;span style=&quot;white-space: pre&quot;&gt;&#x9;&lt;/span&gt;&lt;span style=&quot;white-space: pre&quot;&gt;&#x9;&lt;/span&gt;3A&lt;span style=&quot;white-space: pre&quot;&gt;&#x9;&lt;/span&gt;&lt;span style=&quot;white-space: pre&quot;&gt;&#x9;&lt;/span&gt;&lt;span style=&quot;white-space: pre&quot;&gt;&#x9;&lt;/span&gt;Pendiente recibir&lt;br&gt;&lt;br&gt;&lt;br&gt;Extractor Nevera&lt;span style=&quot;white-space: pre&quot;&gt;&#x9;&lt;/span&gt;&lt;span style=&quot;white-space: pre&quot;&gt;&#x9;&lt;/span&gt;24~12V&lt;span style=&quot;white-space: pre&quot;&gt;&#x9;&lt;/span&gt;&lt;span style=&quot;white-space: pre&quot;&gt;&#x9;&lt;/span&gt;3A&lt;span style=&quot;white-space: pre&quot;&gt;&#x9;&lt;/span&gt;&lt;span style=&quot;white-space: pre&quot;&gt;&#x9;&lt;/span&gt;&lt;span style=&quot;white-space: pre&quot;&gt;&#x9;&lt;/span&gt;?????????&lt;br&gt;Ventilador Calefacción&lt;span style=&quot;white-space: pre&quot;&gt;&#x9;&lt;/span&gt;24~12V&lt;span style=&quot;white-space: pre&quot;&gt;&#x9;&lt;/span&gt;&lt;span style=&quot;white-space: pre&quot;&gt;&#x9;&lt;/span&gt;2A&lt;span style=&quot;white-space: pre&quot;&gt;&#x9;&lt;/span&gt;&lt;span style=&quot;white-space: pre&quot;&gt;&#x9;&lt;/span&gt;&lt;span style=&quot;white-space: pre&quot;&gt;&#x9;&lt;/span&gt;?????????&lt;br&gt;Pump&lt;span style=&quot;white-space: pre&quot;&gt;&#x9;&lt;/span&gt;&lt;span style=&quot;white-space: pre&quot;&gt;&#x9;&lt;/span&gt;&lt;span style=&quot;white-space: pre&quot;&gt;&#x9;&lt;/span&gt;&lt;span style=&quot;white-space: pre&quot;&gt;&#x9;&lt;/span&gt;24~12V&lt;span style=&quot;white-space: pre&quot;&gt;&#x9;&lt;/span&gt;&lt;span style=&quot;white-space: pre&quot;&gt;&#x9;&lt;/span&gt;5A&lt;span style=&quot;white-space: pre&quot;&gt;&#x9;&lt;/span&gt;&lt;span style=&quot;white-space: pre&quot;&gt;&#x9;&lt;/span&gt;&lt;span style=&quot;white-space: pre&quot;&gt;&#x9;&lt;/span&gt;?????&lt;br&gt;PC&lt;span style=&quot;white-space: pre&quot;&gt;&#x9;&lt;/span&gt;&lt;span style=&quot;white-space: pre&quot;&gt;&#x9;&lt;/span&gt;&lt;span style=&quot;white-space: pre&quot;&gt;&#x9;&lt;/span&gt;&lt;span style=&quot;white-space: pre&quot;&gt;&#x9;&lt;span style=&quot;white-space: pre&quot;&gt;&#x9;&lt;/span&gt;2&lt;/span&gt;4~19V&lt;span style=&quot;white-space: pre&quot;&gt;&#x9;&lt;/span&gt;&lt;span style=&quot;white-space: pre&quot;&gt;&#x9;&lt;/span&gt;8A&lt;span style=&quot;white-space: pre&quot;&gt;&#x9;&lt;/span&gt;&lt;span style=&quot;white-space: pre&quot;&gt;&#x9;&lt;/span&gt;&lt;span style=&quot;white-space: pre&quot;&gt;&#x9;&lt;/span&gt;?????&lt;br&gt;Mesita 12V&lt;span style=&quot;white-space: pre&quot;&gt;&#x9;&lt;/span&gt;&lt;span style=&quot;white-space: pre&quot;&gt;&#x9;&lt;/span&gt;&lt;span style=&quot;white-space: pre&quot;&gt;&#x9;&lt;/span&gt;24~12V&lt;span style=&quot;white-space: pre&quot;&gt;&#x9;&lt;/span&gt;&lt;span style=&quot;white-space: pre&quot;&gt;&#x9;&lt;/span&gt;10A&lt;span style=&quot;white-space: pre&quot;&gt;&#x9;&lt;/span&gt;&lt;span style=&quot;white-space: pre&quot;&gt;&#x9;&lt;/span&gt;&lt;span style=&quot;white-space: pre&quot;&gt;&#x9;&lt;/span&gt;??????&lt;br&gt;Ventilador salón&lt;span style=&quot;white-space: pre&quot;&gt;&#x9;&lt;/span&gt;&lt;span style=&quot;white-space: pre&quot;&gt;&#x9;&lt;/span&gt;24~12V&lt;span style=&quot;white-space: pre&quot;&gt;&#x9;&lt;/span&gt;&lt;span style=&quot;white-space: pre&quot;&gt;&#x9;&lt;/span&gt;15A&lt;span style=&quot;white-space: pre&quot;&gt;&#x9;&lt;/span&gt;&lt;span style=&quot;white-space: pre&quot;&gt;&#x9;&lt;/span&gt;&lt;span style=&quot;white-space: pre&quot;&gt;&#x9;&lt;/span&gt;??????&lt;br&gt;Cabina&lt;span style=&quot;white-space: pre&quot;&gt;&#x9;&lt;/span&gt;&lt;span style=&quot;white-space: pre&quot;&gt;&#x9;&lt;/span&gt;&lt;span style=&quot;white-space: pre&quot;&gt;&#x9;&lt;/span&gt;&lt;span style=&quot;white-space: pre&quot;&gt;&#x9;&lt;/span&gt;24~12V&lt;span style=&quot;white-space: pre&quot;&gt;&#x9;&lt;/span&gt;&lt;span style=&quot;white-space: pre&quot;&gt;&#x9;&lt;/span&gt;10A&lt;span style=&quot;white-space: pre&quot;&gt;&#x9;&lt;/span&gt;&lt;span style=&quot;white-space: pre&quot;&gt;&#x9;&lt;/span&gt;&lt;span style=&quot;white-space: pre&quot;&gt;&#x9;&lt;/span&gt;?????&lt;br&gt;&lt;br&gt;Tablet&lt;span style=&quot;white-space: pre&quot;&gt;&#x9;&lt;/span&gt;&lt;span style=&quot;white-space: pre&quot;&gt;&#x9;&lt;/span&gt;&lt;span style=&quot;white-space: pre&quot;&gt;&#x9;&lt;/span&gt;&lt;span style=&quot;white-space: pre&quot;&gt;&#x9;&lt;/span&gt;24~12&lt;span style=&quot;white-space: pre&quot;&gt;&#x9;&lt;/span&gt;&lt;span style=&quot;white-space: pre&quot;&gt;&#x9;&lt;/span&gt;&lt;br&gt;&lt;br&gt;&lt;br&gt;&lt;br&gt;&lt;br&gt;&lt;/font&gt;" style="whiteSpace=wrap;html=1;strokeColor=#000000;gradientColor=none;fontFamily=Helvetica;fontSize=4;fontColor=#000000;fillColor=#FFFFFF;align=left;verticalAlign=top;" parent="1" vertex="1">
          <mxGeometry x="385" y="1172" width="377" height="235" as="geometry" />
        </mxCell>
        <mxCell id="ZQtyk6yFxOkWBHBf2kEJ-3" value="&lt;span style=&quot;white-space: pre&quot;&gt;&#x9;&lt;/span&gt;&lt;span style=&quot;white-space: pre&quot;&gt;&#x9;&lt;/span&gt;&lt;span style=&quot;white-space: pre&quot;&gt;&#x9;&lt;/span&gt;&lt;span style=&quot;white-space: pre&quot;&gt;&#x9;&lt;/span&gt;&lt;span style=&quot;white-space: pre&quot;&gt;&#x9;&lt;/span&gt;&lt;font size=&quot;1&quot;&gt;&amp;nbsp;NEVERA&lt;br&gt;&lt;/font&gt;&lt;font size=&quot;1&quot;&gt;Linea independiente paso por abajo&lt;br&gt;5.60m 24V 7.5A 2%&amp;nbsp; 7AWG&lt;br&gt;&lt;span style=&quot;white-space: pre&quot;&gt;&#x9;&lt;/span&gt;&lt;span style=&quot;white-space: pre&quot;&gt;&#x9;&lt;/span&gt;PC&lt;br&gt;4m 24V 5A 1% 7AWG&lt;br&gt;&lt;/font&gt;" style="whiteSpace=wrap;html=1;strokeColor=#000000;gradientColor=none;fontFamily=Helvetica;fontSize=4;fontColor=#000000;fillColor=#FFFFFF;align=left;verticalAlign=top;" parent="1" vertex="1">
          <mxGeometry x="317" y="1460" width="174" height="84" as="geometry" />
        </mxCell>
        <mxCell id="ZQtyk6yFxOkWBHBf2kEJ-4" value="&lt;span&gt;&#x9;&lt;/span&gt;&lt;span&gt;&#x9;&lt;/span&gt;&lt;span&gt;&#x9;&lt;/span&gt;&lt;span&gt;&#x9;&lt;/span&gt;&lt;span&gt;&#x9;&lt;/span&gt;&lt;font size=&quot;1&quot;&gt;&amp;nbsp;&lt;span&gt;&#x9;&lt;/span&gt;&lt;span&gt;&#x9;&lt;/span&gt;COCINA&lt;br&gt;&lt;/font&gt;&lt;font size=&quot;1&quot;&gt;Una linea del 10 mm2 (L 1)&lt;br&gt;Donde esta conectada la nevera pasa a ser:&lt;br&gt;&lt;/font&gt;&lt;span style=&quot;font-size: x-small&quot;&gt;Extractores de nevera&lt;/span&gt;&lt;font size=&quot;1&quot;&gt;&lt;br&gt;&lt;/font&gt;&lt;span style=&quot;font-size: x-small&quot;&gt;Toma externa&lt;/span&gt;&lt;font size=&quot;1&quot;&gt;&lt;br&gt;&lt;br&gt;Nueva linea de 7 AWG para nevera (L 11)&lt;br&gt;&lt;br&gt;Cable de RED&lt;/font&gt;&lt;br style=&quot;font-size: x-small&quot;&gt;&lt;span style=&quot;font-size: x-small&quot;&gt;Arduino de control&lt;/span&gt;&lt;br style=&quot;font-size: x-small&quot;&gt;&lt;span style=&quot;font-size: x-small&quot;&gt;Electroválvula grifo&lt;/span&gt;&lt;font size=&quot;1&quot;&gt;&lt;br&gt;&lt;br&gt;&lt;br&gt;Otra linea (L 63) 16AWG&lt;br&gt;Que esta conectado el extractor nevera que pasa a ser para la Luz Mueble cocina&lt;br&gt;&lt;/font&gt;" style="whiteSpace=wrap;html=1;strokeColor=#000000;gradientColor=none;fontFamily=Helvetica;fontSize=4;fontColor=#000000;fillColor=#FFFFFF;align=left;verticalAlign=top;" parent="1" vertex="1">
          <mxGeometry x="69" y="1401" width="221" height="234" as="geometry" />
        </mxCell>
        <mxCell id="ZQtyk6yFxOkWBHBf2kEJ-6" value="&lt;font size=&quot;1&quot;&gt;Sección Max. paso por relés del 12 AWG&lt;/font&gt;&lt;font size=&quot;1&quot;&gt;&lt;br&gt;&lt;/font&gt;" style="whiteSpace=wrap;html=1;strokeColor=#000000;gradientColor=none;fontFamily=Helvetica;fontSize=4;fontColor=#000000;fillColor=#FFFFFF;align=left;verticalAlign=top;" parent="1" vertex="1">
          <mxGeometry x="318" y="1581" width="192" height="28" as="geometry" />
        </mxCell>
        <mxCell id="ZQtyk6yFxOkWBHBf2kEJ-7" value="&lt;span&gt;&#x9;&lt;/span&gt;&lt;span&gt;&#x9;&lt;/span&gt;&lt;span&gt;&#x9;&lt;/span&gt;&lt;span&gt;&#x9;&lt;/span&gt;&lt;span&gt;&#x9;&lt;/span&gt;&lt;font size=&quot;1&quot;&gt;&amp;nbsp;Arduino Cocina&lt;br&gt;Cable de RED&lt;br&gt;&lt;/font&gt;&lt;span style=&quot;font-size: x-small&quot;&gt;Electro-valvula grifo&lt;/span&gt;&lt;span style=&quot;font-size: x-small&quot;&gt;&#x9;&lt;/span&gt;&lt;span style=&quot;font-size: x-small&quot;&gt;&#x9;&lt;/span&gt;&lt;span style=&quot;font-size: x-small&quot;&gt;&#x9;&lt;/span&gt;&lt;span style=&quot;font-size: x-small&quot;&gt;24V&lt;/span&gt;&lt;span style=&quot;font-size: x-small&quot;&gt;&#x9;&lt;/span&gt;&lt;span style=&quot;font-size: x-small&quot;&gt;&#x9;&lt;/span&gt;&lt;span style=&quot;font-size: x-small&quot;&gt;0.3A&lt;br&gt;&lt;/span&gt;&lt;span style=&quot;font-size: x-small&quot;&gt;Arduino cocina&lt;/span&gt;&lt;span style=&quot;font-size: x-small&quot;&gt;&#x9;&lt;/span&gt;&lt;span style=&quot;font-size: x-small&quot;&gt;&#x9;&lt;/span&gt;&lt;span style=&quot;font-size: x-small&quot;&gt;&#x9;&lt;/span&gt;&lt;span style=&quot;font-size: x-small&quot;&gt;&#x9;&lt;/span&gt;&lt;span style=&quot;font-size: x-small&quot;&gt;9V&lt;/span&gt;&lt;span style=&quot;font-size: x-small&quot;&gt;&#x9;&lt;/span&gt;&lt;span style=&quot;font-size: x-small&quot;&gt;&#x9;&lt;/span&gt;&lt;span style=&quot;font-size: x-small&quot;&gt;1A&lt;/span&gt;&lt;font size=&quot;1&quot;&gt;&lt;br&gt;&lt;/font&gt;" style="whiteSpace=wrap;html=1;strokeColor=#000000;gradientColor=none;fontFamily=Helvetica;fontSize=4;fontColor=#000000;fillColor=#FFFFFF;align=left;verticalAlign=top;" parent="1" vertex="1">
          <mxGeometry x="892" y="1569" width="173" height="60" as="geometry" />
        </mxCell>
        <mxCell id="SF931Mywenp9Y2Ugy3Pg-1" value="&lt;font size=&quot;1&quot;&gt;Cabina&lt;br&gt;Doble conector tipo coche de 24V&lt;br&gt;En conector tipo coche junto chofer&lt;br&gt;con transfor de 10A a 12V&lt;br&gt;&lt;/font&gt;" style="whiteSpace=wrap;html=1;strokeColor=#000000;gradientColor=none;fontFamily=Helvetica;fontSize=4;fontColor=#000000;fillColor=#FFFFFF;align=left;verticalAlign=top;" parent="1" vertex="1">
          <mxGeometry x="880" y="1435" width="173" height="60" as="geometry" />
        </mxCell>
        <mxCell id="SF931Mywenp9Y2Ugy3Pg-2" value="&lt;font size=&quot;1&quot;&gt;WEBASTO&lt;br&gt;&lt;/font&gt;" style="whiteSpace=wrap;html=1;strokeColor=#000000;gradientColor=none;fontFamily=Helvetica;fontSize=4;fontColor=#000000;fillColor=#FFFFFF;align=left;verticalAlign=top;" parent="1" vertex="1">
          <mxGeometry x="605" y="1513" width="173" height="60" as="geometry" />
        </mxCell>
        <mxCell id="REklVsk6FUK4t5RbrmTy-106" value="Notas" parent="0" />
        <mxCell id="zfktQh-bjbZ7xJ-mgLf9-1" value="&lt;font size=&quot;1&quot;&gt;&amp;nbsp; &amp;nbsp; &amp;nbsp; &amp;nbsp; &amp;nbsp; &amp;nbsp; &amp;nbsp; &amp;nbsp; &amp;nbsp; &amp;nbsp; &amp;nbsp; &amp;nbsp; &amp;nbsp; &amp;nbsp; &amp;nbsp; &amp;nbsp; &amp;nbsp; &amp;nbsp; &amp;nbsp;9.- 220V&lt;br&gt;90.- Externo ?Izquierdo&lt;br&gt;91.- Enchufe junto nevera&lt;br&gt;92.- Dentro armario &amp;amp; Mesita&lt;br&gt;93.- WC&lt;br&gt;94.- Capuchina - CHR220V&lt;br&gt;95.- Inversor&lt;br&gt;96.- Externo ?Derecho&lt;br&gt;97.- Columna pantalla&lt;br&gt;&lt;/font&gt;" style="whiteSpace=wrap;html=1;strokeColor=#000000;gradientColor=none;fontFamily=Helvetica;fontSize=4;fontColor=#000000;fillColor=#FFFFFF;align=left;verticalAlign=top;" parent="REklVsk6FUK4t5RbrmTy-106" vertex="1">
          <mxGeometry x="859" y="1126" width="268" height="119" as="geometry" />
        </mxCell>
        <mxCell id="zfktQh-bjbZ7xJ-mgLf9-2" value="&lt;font size=&quot;1&quot;&gt;&amp;nbsp; &amp;nbsp; &amp;nbsp; &amp;nbsp; &amp;nbsp; &amp;nbsp; &amp;nbsp; &amp;nbsp; &amp;nbsp; &amp;nbsp; &amp;nbsp; &amp;nbsp; &amp;nbsp; &amp;nbsp; &amp;nbsp;&lt;span style=&quot;white-space: pre&quot;&gt;&#x9;&lt;/span&gt;&lt;span style=&quot;white-space: pre&quot;&gt;&#x9;&lt;/span&gt;TRANSFORMADORES&amp;nbsp; &amp;lt;= 1A&lt;br&gt;&lt;/font&gt;&lt;font size=&quot;1&quot;&gt;&lt;br&gt;Luz Mueble cocina&lt;br&gt;Luz mueble salon 1&lt;span&gt;&#x9;&lt;span style=&quot;white-space: pre&quot;&gt;&#x9;&lt;/span&gt;&lt;span style=&quot;white-space: pre&quot;&gt;&#x9;&lt;/span&gt;&lt;span style=&quot;white-space: pre&quot;&gt;&#x9;&lt;/span&gt;24~12V&lt;br&gt;&lt;/span&gt;&lt;/font&gt;&lt;span style=&quot;font-size: x-small&quot;&gt;Luz Mueble salon 2&lt;span style=&quot;white-space: pre&quot;&gt;&#x9;&lt;/span&gt;&lt;span style=&quot;white-space: pre&quot;&gt;&#x9;&lt;span style=&quot;white-space: pre&quot;&gt;&#x9;&lt;/span&gt;&lt;span style=&quot;white-space: pre&quot;&gt;&#x9;&lt;/span&gt;&lt;/span&gt;&lt;/span&gt;&lt;font size=&quot;1&quot;&gt;24~12V&lt;br&gt;Luz cocina&lt;span style=&quot;white-space: pre&quot;&gt;&#x9;&lt;/span&gt;&lt;span style=&quot;white-space: pre&quot;&gt;&#x9;&lt;/span&gt;&lt;span style=&quot;white-space: pre&quot;&gt;&#x9;&lt;/span&gt;&lt;span style=&quot;white-space: pre&quot;&gt;&#x9;&lt;/span&gt;&lt;span style=&quot;white-space: pre&quot;&gt;&#x9;&lt;/span&gt;24~12V&lt;br&gt;Luz Mueble bajo Salon&lt;span style=&quot;white-space: pre&quot;&gt;&#x9;&lt;/span&gt;&lt;span style=&quot;white-space: pre&quot;&gt;&#x9;&lt;/span&gt;&lt;span style=&quot;white-space: pre&quot;&gt;&#x9;&lt;/span&gt;&lt;span style=&quot;white-space: pre&quot;&gt;&#x9;&lt;/span&gt;24~12V&lt;br&gt;Boiler&lt;span style=&quot;white-space: pre&quot;&gt;&#x9;&lt;/span&gt;&lt;span style=&quot;white-space: pre&quot;&gt;&#x9;&lt;/span&gt;&lt;span style=&quot;white-space: pre&quot;&gt;&#x9;&lt;/span&gt;&lt;span style=&quot;white-space: pre&quot;&gt;&#x9;&lt;/span&gt;&lt;span style=&quot;white-space: pre&quot;&gt;&#x9;&lt;/span&gt;&lt;span style=&quot;white-space: pre&quot;&gt;&#x9;&lt;/span&gt;24~12V&lt;br&gt;Luz baño&lt;span style=&quot;white-space: pre&quot;&gt;&#x9;&lt;/span&gt;&lt;span style=&quot;white-space: pre&quot;&gt;&#x9;&lt;/span&gt;&lt;span style=&quot;white-space: pre&quot;&gt;&#x9;&lt;/span&gt;&lt;span style=&quot;white-space: pre&quot;&gt;&#x9;&lt;/span&gt;&lt;span style=&quot;white-space: pre&quot;&gt;&#x9;&lt;/span&gt;&lt;span style=&quot;white-space: pre&quot;&gt;&#x9;&lt;/span&gt;¿Ya instalado?&lt;br&gt;Boiler&lt;span style=&quot;white-space: pre&quot;&gt;&#x9;&lt;/span&gt;&lt;span style=&quot;white-space: pre&quot;&gt;&#x9;&lt;/span&gt;&lt;span style=&quot;white-space: pre&quot;&gt;&#x9;&lt;/span&gt;&lt;span style=&quot;white-space: pre&quot;&gt;&#x9;&lt;/span&gt;&lt;span style=&quot;white-space: pre&quot;&gt;&#x9;&lt;/span&gt;&lt;span style=&quot;white-space: pre&quot;&gt;&#x9;&lt;/span&gt;24~12V&lt;br&gt;&lt;br&gt;&lt;br&gt;Arduino cocina&lt;span style=&quot;white-space: pre&quot;&gt;&#x9;&lt;/span&gt;&lt;span style=&quot;white-space: pre&quot;&gt;&#x9;&lt;/span&gt;&lt;span style=&quot;white-space: pre&quot;&gt;&#x9;&lt;/span&gt;&lt;span style=&quot;white-space: pre&quot;&gt;&#x9;&lt;/span&gt;24~9V&lt;br&gt;&lt;br&gt;&lt;br&gt;COMPRAR CONTACTOR 24V&lt;br&gt;&lt;br&gt;&lt;/font&gt;" style="whiteSpace=wrap;html=1;strokeColor=#000000;gradientColor=none;fontFamily=Helvetica;fontSize=4;fontColor=#000000;fillColor=#FFFFFF;align=left;verticalAlign=top;" parent="REklVsk6FUK4t5RbrmTy-106" vertex="1">
          <mxGeometry x="12" y="1159" width="349" height="234" as="geometry" />
        </mxCell>
        <mxCell id="zfktQh-bjbZ7xJ-mgLf9-3" value="&lt;font size=&quot;1&quot;&gt;&amp;nbsp; &amp;nbsp; &amp;nbsp; &amp;nbsp; &amp;nbsp; &amp;nbsp; &amp;nbsp; &amp;nbsp; &amp;nbsp; &amp;nbsp; &amp;nbsp; &amp;nbsp;0.- Sin paso por centralita&lt;br&gt;01.- Placa solar ISC 10,36A&amp;nbsp; &amp;nbsp; &amp;nbsp; &amp;nbsp; &amp;nbsp; &amp;nbsp; &amp;nbsp; &amp;nbsp; &amp;nbsp; &amp;nbsp; &amp;nbsp;&amp;nbsp;&lt;/font&gt;&lt;span style=&quot;font-size: x-small&quot;&gt;10AWG -&amp;nbsp;&lt;/span&gt;&lt;font size=&quot;1&quot;&gt;15A&lt;br&gt;02.- Alimentacion centralita&lt;br&gt;&lt;/font&gt;&lt;span style=&quot;font-size: x-small&quot;&gt;03.- SHUNT Power supply 10~30V&lt;br&gt;&lt;/span&gt;&lt;font style=&quot;font-size: 10px&quot;&gt;04.- Contactor general Interruptor manual 12V 330A&lt;/font&gt;&lt;div&gt;&lt;span style=&quot;font-size: 10px;&quot;&gt;78.- Router&lt;/span&gt;&lt;/div&gt;&lt;div&gt;&lt;br&gt;&lt;br&gt;&lt;br&gt;&lt;/div&gt;" style="whiteSpace=wrap;html=1;strokeColor=#000000;gradientColor=none;fontFamily=Helvetica;fontSize=4;fontColor=#000000;fillColor=#FFFFFF;align=left;verticalAlign=top;" parent="REklVsk6FUK4t5RbrmTy-106" vertex="1">
          <mxGeometry x="859" y="1248" width="268" height="93" as="geometry" />
        </mxCell>
        <mxCell id="zfktQh-bjbZ7xJ-mgLf9-4" value="&lt;span style=&quot;font-size: 10px&quot;&gt;&amp;nbsp; &amp;nbsp; &amp;nbsp; &amp;nbsp; &amp;nbsp; &amp;nbsp; &amp;nbsp; &amp;nbsp; &amp;nbsp; &amp;nbsp;2&lt;/span&gt;&lt;font size=&quot;1&quot;&gt;.-&amp;nbsp;&lt;/font&gt;&lt;span style=&quot;font-size: x-small&quot;&gt;Paso por centralita Relés -2-&lt;/span&gt;&lt;font size=&quot;1&quot;&gt;&lt;br&gt;201.-&amp;gt; 11.-&amp;gt; Nevera&lt;span&gt;&amp;nbsp; &amp;nbsp; &amp;nbsp; &amp;nbsp; &amp;nbsp; &amp;nbsp; &amp;nbsp; &amp;nbsp; &amp;nbsp; &amp;nbsp; &amp;nbsp; &amp;nbsp; &amp;nbsp; &amp;nbsp; &amp;nbsp; &amp;nbsp; &amp;nbsp; &amp;nbsp; &amp;nbsp; &amp;nbsp; &amp;nbsp; &amp;nbsp;&lt;/span&gt;&lt;span&gt;&lt;/span&gt;&lt;/font&gt;&lt;span style=&quot;font-size: 10px&quot;&gt;24V -&amp;nbsp;&lt;/span&gt;&lt;span style=&quot;font-size: 10px&quot;&gt;2.5A&lt;/span&gt;&lt;span style=&quot;font-size: 10px&quot;&gt;&amp;nbsp;7.5APk - 7 AWG&lt;/span&gt;&lt;font size=&quot;1&quot;&gt;&lt;br&gt;202.-&amp;gt; 1.-&amp;gt;Nevera -&amp;gt; Cocina&lt;span&gt;&amp;nbsp; &amp;nbsp; &amp;nbsp; &amp;nbsp; &amp;nbsp; &amp;nbsp; &amp;nbsp; &amp;nbsp; &amp;nbsp; &amp;nbsp; &amp;nbsp; &amp;nbsp; &amp;nbsp; &amp;nbsp; &amp;nbsp; &amp;nbsp; &amp;nbsp; &amp;nbsp; &amp;nbsp; &amp;nbsp; &amp;nbsp; &amp;nbsp; &amp;nbsp; &amp;nbsp; &amp;nbsp; &amp;nbsp; &amp;nbsp; &amp;nbsp; &amp;nbsp; &amp;nbsp;&amp;nbsp;&lt;/span&gt;&lt;span&gt;&lt;/span&gt;&lt;span&gt;&lt;/span&gt;&lt;span&gt;&lt;/span&gt;&lt;span&gt;&lt;/span&gt;10 mm2&lt;br&gt;&amp;nbsp; &amp;nbsp; &amp;nbsp; &amp;nbsp; &amp;nbsp; &amp;nbsp; -&amp;gt;&amp;nbsp; &amp;nbsp;Extractor Nevera&amp;nbsp; &amp;nbsp; &amp;nbsp; &amp;nbsp; &amp;nbsp; &amp;nbsp; &amp;nbsp; &amp;nbsp; &amp;nbsp; &amp;nbsp; &amp;nbsp; &amp;nbsp; &amp;nbsp;24 ~ 12V&lt;span&gt;&#x9;&lt;/span&gt;3A&lt;br&gt;&amp;nbsp; &amp;nbsp; &amp;nbsp; &amp;nbsp; &amp;nbsp; &amp;nbsp; -&amp;gt;&amp;nbsp; &amp;nbsp;Linea externa&lt;span&gt;&amp;nbsp; &amp;nbsp; &amp;nbsp; &amp;nbsp; &amp;nbsp; &amp;nbsp; &amp;nbsp; &amp;nbsp; &amp;nbsp; &amp;nbsp; &amp;nbsp; &amp;nbsp; &amp;nbsp; &amp;nbsp; &amp;nbsp; &amp;nbsp; &amp;nbsp; &amp;nbsp; &amp;nbsp;&amp;nbsp;&lt;/span&gt;24V 3A&lt;br&gt;203.-&amp;gt; 3.-&lt;/font&gt;&lt;span style=&quot;font-size: x-small&quot;&gt;Ventilador c&lt;/span&gt;&lt;font size=&quot;1&quot;&gt;alefacción&amp;nbsp; &amp;nbsp; &amp;nbsp; &amp;nbsp; &amp;nbsp; &amp;nbsp; &amp;nbsp; &amp;nbsp; &amp;nbsp; &amp;nbsp; &amp;nbsp; 24~12V 1.5A&amp;nbsp; 3APk - 16 AWG&lt;br&gt;204.-&amp;gt; 72.- Extractor&amp;nbsp;&lt;/font&gt;&lt;span style=&quot;font-size: x-small&quot;&gt;Reserved&lt;/span&gt;&lt;font size=&quot;1&quot;&gt;&lt;br&gt;205.-&amp;gt; 4.- Pump&lt;/font&gt;&lt;font size=&quot;1&quot;&gt;&amp;nbsp; &amp;nbsp; &amp;nbsp; &amp;nbsp; &amp;nbsp; &amp;nbsp; &amp;nbsp; &amp;nbsp; &amp;nbsp; &amp;nbsp; &amp;nbsp; &amp;nbsp; &amp;nbsp; &amp;nbsp; &amp;nbsp; &amp;nbsp; &amp;nbsp; &amp;nbsp; &amp;nbsp; &amp;nbsp;&lt;/font&gt;&lt;span style=&quot;font-size: 10px&quot;&gt;24V&lt;/span&gt;&lt;font size=&quot;1&quot;&gt;~&lt;/font&gt;&lt;span style=&quot;font-size: 10px&quot;&gt;12V 5&lt;/span&gt;&lt;font size=&quot;1&quot;&gt;A Previ(15A)&amp;nbsp;&lt;/font&gt;&lt;font size=&quot;1&quot;&gt;- 16 AWG&lt;/font&gt;&lt;font size=&quot;1&quot;&gt;&lt;br&gt;&lt;/font&gt;&lt;font size=&quot;1&quot;&gt;206.- Valvula aguas grises&amp;nbsp; &amp;nbsp; &amp;nbsp; &amp;nbsp; &amp;nbsp; &amp;nbsp; &amp;nbsp; &amp;nbsp; &amp;nbsp; &amp;nbsp; &amp;nbsp; &amp;nbsp; &amp;nbsp; &amp;nbsp; &amp;nbsp; &amp;nbsp; &amp;nbsp; &amp;nbsp; &amp;nbsp; &amp;nbsp; &amp;nbsp; &amp;nbsp; &amp;nbsp; 24V 0.1A - 22 AWG&lt;br&gt;207.- A&lt;/font&gt;&lt;span style=&quot;font-size: x-small&quot;&gt;guas grises Puente H&lt;br&gt;&lt;/span&gt;&lt;font size=&quot;1&quot;&gt;208.- A&lt;/font&gt;&lt;span style=&quot;font-size: x-small&quot;&gt;guas grises Puente H&lt;/span&gt;&lt;font size=&quot;1&quot;&gt;&lt;br&gt;209.-&amp;gt; 24.- PC&amp;nbsp; &amp;nbsp; &amp;nbsp; &amp;nbsp; &amp;nbsp; &amp;nbsp; &amp;nbsp; &amp;nbsp; &amp;nbsp; &amp;nbsp;&lt;span&gt;&#x9;&lt;/span&gt;&amp;nbsp; &amp;nbsp; &amp;nbsp; &amp;nbsp; &amp;nbsp; &amp;nbsp; &amp;nbsp; &amp;nbsp; &amp;nbsp; &amp;nbsp; &amp;nbsp; &amp;nbsp; &amp;nbsp; &amp;nbsp; &amp;nbsp; &amp;nbsp; &amp;nbsp; &amp;nbsp; &amp;nbsp; &lt;/font&gt;&lt;font size=&quot;1&quot;&gt;24V ~&amp;nbsp;&lt;/font&gt;&lt;span style=&quot;font-size: x-small&quot;&gt;19V&lt;/span&gt;&lt;font size=&quot;1&quot;&gt;&amp;nbsp;7.5A - 7 AWG&lt;br&gt;210.-&amp;gt; 41.-Pantalla&amp;nbsp; &amp;nbsp; &amp;nbsp; &amp;nbsp; &amp;nbsp; &amp;nbsp; &amp;nbsp; &amp;nbsp;&amp;nbsp;&lt;span&gt;&amp;nbsp; &amp;nbsp; &amp;nbsp; &amp;nbsp; &amp;nbsp; &amp;nbsp; &amp;nbsp; &amp;nbsp; &amp;nbsp; &amp;nbsp; &amp;nbsp; &amp;nbsp; &amp;nbsp; &amp;nbsp; &amp;nbsp; &amp;nbsp; &amp;nbsp; &amp;nbsp; &amp;nbsp; &amp;nbsp; &amp;nbsp; &amp;nbsp; &amp;nbsp;&lt;/span&gt;&lt;span&gt;&lt;/span&gt;&lt;span&gt;&lt;/span&gt;&lt;/font&gt;&lt;font size=&quot;1&quot;&gt;24V 4A - 14AWG&lt;br&gt;211.-&amp;gt; 42.-Columna pantalla&amp;nbsp; &amp;nbsp; &amp;nbsp; &amp;nbsp; &amp;nbsp; &amp;nbsp; &amp;nbsp; &amp;nbsp; &amp;nbsp; &amp;nbsp; &amp;nbsp; &amp;nbsp; &amp;nbsp; &amp;nbsp; &amp;nbsp; &amp;nbsp; &amp;nbsp; &amp;nbsp; &amp;nbsp; &amp;nbsp; &amp;nbsp; &amp;nbsp; &amp;nbsp; 24V 5A - 12AWG&lt;br&gt;212.- Mesita 24V&amp;nbsp; &amp;nbsp; &amp;nbsp; &amp;nbsp; &amp;nbsp; &amp;nbsp; &amp;nbsp; &amp;nbsp; &amp;nbsp; &amp;nbsp; &amp;nbsp; &amp;nbsp; &amp;nbsp; &amp;nbsp; &amp;nbsp; &amp;nbsp; &amp;nbsp; &amp;nbsp; &amp;nbsp; &amp;nbsp; &amp;nbsp; &amp;nbsp; &amp;nbsp; &amp;nbsp; &amp;nbsp; &amp;nbsp; &amp;nbsp; &amp;nbsp; &amp;nbsp; &amp;nbsp; &amp;nbsp; 24V 10A - 12AWG&lt;br&gt;213.- Mesita 12V&amp;nbsp; &amp;nbsp; &amp;nbsp; &amp;nbsp; &amp;nbsp; &amp;nbsp; &amp;nbsp; &amp;nbsp; &amp;nbsp; &amp;nbsp; &amp;nbsp; &amp;nbsp; &amp;nbsp; &amp;nbsp; &amp;nbsp; &amp;nbsp; &amp;nbsp; &amp;nbsp; &amp;nbsp; &amp;nbsp; &amp;nbsp; &amp;nbsp; &amp;nbsp; &amp;nbsp; &amp;nbsp; &amp;nbsp; &amp;nbsp; &amp;nbsp; 24~12V 10A - 15AWG&lt;/font&gt;&lt;span style=&quot;font-size: x-small&quot;&gt;&lt;br&gt;&lt;/span&gt;&lt;font size=&quot;1&quot;&gt;214.&lt;/font&gt;&lt;font size=&quot;1&quot;&gt;-&amp;gt; 6.-&amp;nbsp;&lt;/font&gt;&lt;span style=&quot;font-size: 10px&quot;&gt;Ventilador Salón&lt;span&gt;&amp;nbsp; &amp;nbsp; &amp;nbsp; &amp;nbsp; &amp;nbsp; &amp;nbsp; &amp;nbsp; &amp;nbsp; &amp;nbsp; &amp;nbsp; &amp;nbsp; &amp;nbsp; &amp;nbsp; &amp;nbsp; &amp;nbsp; &amp;nbsp;&lt;/span&gt;24~12V&lt;span&gt;&amp;nbsp;3A&amp;nbsp;&lt;/span&gt;15APk - 11AWG&lt;/span&gt;&lt;span style=&quot;font-size: x-small&quot;&gt;&lt;br&gt;&lt;/span&gt;&lt;font size=&quot;1&quot;&gt;215&lt;/font&gt;&lt;font size=&quot;1&quot;&gt;.-&amp;gt; 8.- Cabina&lt;span&gt;&amp;nbsp; &amp;nbsp; &amp;nbsp; &amp;nbsp; &amp;nbsp; &amp;nbsp; &amp;nbsp; &amp;nbsp; &amp;nbsp; &amp;nbsp; &amp;nbsp; &amp;nbsp; &amp;nbsp; &amp;nbsp; &amp;nbsp; &amp;nbsp; &amp;nbsp; &amp;nbsp; &amp;nbsp; &amp;nbsp; &amp;nbsp; &amp;nbsp; &amp;nbsp; &amp;nbsp; &amp;nbsp; &amp;nbsp; &amp;nbsp; &amp;nbsp; &amp;nbsp; &amp;nbsp; &amp;nbsp;&lt;/span&gt;&lt;span&gt;&lt;/span&gt;&lt;span&gt;&lt;/span&gt;24V&lt;span&gt;&amp;nbsp;15&lt;/span&gt;A - 10mm2&lt;br&gt;&lt;/font&gt;&lt;span style=&quot;font-size: x-small&quot;&gt;&amp;nbsp; &amp;nbsp;Solo 1 transfo de 10A para un enchufe junto piloto&lt;br&gt;&lt;/span&gt;&lt;font size=&quot;1&quot;&gt;216.-&amp;gt; 5.- Boiler&amp;nbsp; &amp;nbsp; &amp;nbsp; &amp;nbsp; &amp;nbsp; &amp;nbsp; &amp;nbsp; &amp;nbsp; &amp;nbsp; &amp;nbsp; &amp;nbsp; &amp;nbsp; &amp;nbsp; &amp;nbsp; &amp;nbsp; &amp;nbsp; &amp;nbsp; &amp;nbsp; &amp;nbsp; &amp;nbsp; &amp;nbsp; &amp;nbsp; &amp;nbsp; &amp;nbsp; &amp;nbsp; &amp;nbsp;&amp;nbsp;&lt;span&gt;&lt;/span&gt;24V ~ 12V 0.2A - 22 AWG&lt;/font&gt;&lt;font size=&quot;1&quot;&gt;&lt;br&gt;&lt;br&gt;&lt;br&gt;&lt;br&gt;&lt;/font&gt;" style="whiteSpace=wrap;html=1;strokeColor=#000000;gradientColor=none;fontFamily=Helvetica;fontSize=4;fontColor=#000000;fillColor=#FFFFFF;align=left;verticalAlign=top;" parent="REklVsk6FUK4t5RbrmTy-106" vertex="1">
          <mxGeometry x="405" y="852" width="342" height="259" as="geometry" />
        </mxCell>
        <mxCell id="zfktQh-bjbZ7xJ-mgLf9-5" value="&lt;span style=&quot;font-size: x-small&quot;&gt;&amp;nbsp; &amp;nbsp; &amp;nbsp; &amp;nbsp; &amp;nbsp; &amp;nbsp; &amp;nbsp; &amp;nbsp; &amp;nbsp; &amp;nbsp; &amp;nbsp; &amp;nbsp; &amp;nbsp; &amp;nbsp; &amp;nbsp; &amp;nbsp;7.- Provisionales&lt;br&gt;&lt;/span&gt;&lt;span style=&quot;font-size: x-small&quot;&gt;0.-&amp;gt; 70.- Bocina alarma&lt;/span&gt;&lt;font size=&quot;1&quot;&gt;&lt;br&gt;71.-&amp;gt; Provisionales ¿gris?&lt;br&gt;72.- Provisional???&lt;/font&gt;&lt;font size=&quot;1&quot;&gt;&lt;br&gt;&lt;/font&gt;" style="whiteSpace=wrap;html=1;strokeColor=#000000;gradientColor=none;fontFamily=Helvetica;fontSize=4;fontColor=#000000;fillColor=#FFFFFF;align=left;verticalAlign=top;" parent="REklVsk6FUK4t5RbrmTy-106" vertex="1">
          <mxGeometry x="889" y="862" width="268" height="62" as="geometry" />
        </mxCell>
        <mxCell id="zfktQh-bjbZ7xJ-mgLf9-6" value="&lt;font size=&quot;1&quot;&gt;&amp;nbsp; &amp;nbsp; &amp;nbsp; &amp;nbsp; &amp;nbsp; &amp;nbsp; &amp;nbsp; &amp;nbsp; &amp;nbsp; &amp;nbsp; &amp;nbsp; &amp;nbsp; &amp;nbsp; &amp;nbsp; &amp;nbsp; &amp;nbsp; 8.- Paso a cabina&lt;br&gt;81.- Altavoz Trasero Derecha&lt;br&gt;&lt;/font&gt;&lt;span style=&quot;font-size: x-small&quot;&gt;82.-&amp;nbsp;&lt;/span&gt;&lt;span style=&quot;font-size: x-small&quot;&gt;Altavoz&amp;nbsp;&lt;/span&gt;&lt;span style=&quot;font-size: x-small&quot;&gt;Trasero Izquierda&lt;br&gt;&lt;/span&gt;&lt;span style=&quot;font-size: x-small&quot;&gt;83.-&amp;nbsp;&lt;/span&gt;&lt;span style=&quot;font-size: x-small&quot;&gt;Altavoz&amp;nbsp;&lt;/span&gt;&lt;span style=&quot;font-size: x-small&quot;&gt;Delantero Derecha&lt;br&gt;&lt;/span&gt;&lt;span style=&quot;font-size: x-small&quot;&gt;84.-&amp;nbsp;&lt;/span&gt;&lt;span style=&quot;font-size: x-small&quot;&gt;Altavoz&amp;nbsp;&lt;/span&gt;&lt;span style=&quot;font-size: x-small&quot;&gt;Delantero Izquierda&lt;br&gt;55.-&amp;gt; 85.- D+?contact&lt;br&gt;86.- Alternador&lt;/span&gt;&lt;font size=&quot;1&quot;&gt;&lt;br&gt;&lt;/font&gt;" style="whiteSpace=wrap;html=1;strokeColor=#000000;gradientColor=none;fontFamily=Helvetica;fontSize=4;fontColor=#000000;fillColor=#FFFFFF;align=left;verticalAlign=top;" parent="REklVsk6FUK4t5RbrmTy-106" vertex="1">
          <mxGeometry x="889" y="969" width="268" height="108" as="geometry" />
        </mxCell>
        <mxCell id="zfktQh-bjbZ7xJ-mgLf9-7" value="&lt;font size=&quot;1&quot;&gt;&amp;nbsp; &amp;nbsp; &amp;nbsp; &amp;nbsp; &amp;nbsp; &amp;nbsp; &amp;nbsp; &amp;nbsp; &amp;nbsp; &amp;nbsp;1.- Paso por centralita Relés -1-&lt;br&gt;&lt;/font&gt;&lt;span style=&quot;font-size: x-small&quot;&gt;101.-&amp;gt; 63.- Extractor Nevera -&amp;gt;&lt;br&gt;&amp;nbsp; &amp;nbsp; &amp;nbsp; &amp;nbsp; &amp;nbsp; &amp;nbsp; &amp;nbsp; Luz Mueble Bajo Cocina&amp;nbsp; &amp;nbsp; &amp;nbsp; &lt;/span&gt;&lt;span style=&quot;font-size: 10px&quot;&gt;24V ~ 12V 1A - 16 AWG&lt;/span&gt;&lt;span style=&quot;font-size: x-small&quot;&gt;&lt;br&gt;&lt;/span&gt;&lt;font style=&quot;font-size: 10px&quot;&gt;102.-&amp;gt; 21.- Luz Salón Cocina&amp;nbsp; &amp;nbsp; &amp;nbsp; &amp;nbsp; &amp;nbsp; &amp;nbsp; 24V ~ 12V 6A - 10 AWG&lt;br&gt;103.-&amp;gt; 22.- Luz Baño&amp;nbsp; &amp;nbsp; &amp;nbsp; &amp;nbsp; &amp;nbsp; &amp;nbsp; &amp;nbsp; &amp;nbsp; &amp;nbsp; &amp;nbsp; &amp;nbsp; &amp;nbsp; &amp;nbsp; 24V ~&amp;nbsp;12V 1A - 22 AWG&lt;br&gt;104.-&amp;nbsp;&lt;span style=&quot;font-size: x-small&quot;&gt;Luz Muebl inferiores Salón&lt;/span&gt;&amp;nbsp; &amp;nbsp; &amp;nbsp; &amp;nbsp; 24V ~ 12V 1A - 18 AWG&lt;br&gt;105.- Claraboya Salón&amp;nbsp; &amp;nbsp; &amp;nbsp; &amp;nbsp; &amp;nbsp; &amp;nbsp; &amp;nbsp; &amp;nbsp; &amp;nbsp; &amp;nbsp; &amp;nbsp; &amp;nbsp; 24V ~ 12V 4A - 12 AWG&lt;br&gt;106.- Claraboya Pasillo&amp;nbsp; &amp;nbsp; &amp;nbsp; &amp;nbsp; &amp;nbsp; &amp;nbsp; &amp;nbsp; &amp;nbsp; &amp;nbsp; &amp;nbsp; &amp;nbsp; 24V ~ 12V 4A - 12 AWG&lt;br&gt;107.- Luz Capuchina&amp;nbsp; &amp;nbsp; &amp;nbsp; &amp;nbsp; &amp;nbsp; &amp;nbsp; &amp;nbsp; &amp;nbsp; &amp;nbsp; &amp;nbsp; &amp;nbsp; &amp;nbsp; &amp;nbsp; 24V ~ 12V 4A&lt;br&gt;108.- Luz Externa Delantera&lt;br&gt;109.- Luz Externa Trasera&lt;br&gt;110.- Luz Externa Derecha&lt;br&gt;111.- Luz Externa Izquierda&lt;/font&gt;&lt;span style=&quot;font-size: x-small&quot;&gt;&lt;br&gt;&lt;/span&gt;&lt;font size=&quot;1&quot;&gt;112 -&amp;gt; 2.- Luz Muebles sup Salón&lt;span&gt;&amp;nbsp; &amp;nbsp; &amp;nbsp;&amp;nbsp;&lt;/span&gt;24V ~ 12V 1A&lt;br&gt;113.-&amp;nbsp;&lt;/font&gt;&lt;span style=&quot;font-size: x-small&quot;&gt;Reserved&lt;br&gt;&lt;/span&gt;&lt;font size=&quot;1&quot;&gt;114.-&amp;nbsp;&lt;/font&gt;&lt;span style=&quot;font-size: x-small&quot;&gt;Reserved&lt;br&gt;&lt;/span&gt;&lt;font size=&quot;1&quot;&gt;115.-&amp;gt; 56&amp;nbsp;&lt;/font&gt;&lt;span style=&quot;font-size: x-small&quot;&gt;Cámara Lateral&lt;span&gt;&amp;nbsp; &amp;nbsp; &amp;nbsp; &amp;nbsp; &amp;nbsp; &amp;nbsp; &amp;nbsp; &amp;nbsp; &amp;nbsp;&lt;/span&gt;24V ~ 12V&amp;nbsp; 3 A - 14 AWG&lt;br&gt;&lt;/span&gt;&lt;font size=&quot;1&quot;&gt;116.-&amp;gt; 57&amp;nbsp;&lt;/font&gt;&lt;span style=&quot;font-size: x-small&quot;&gt;Cámara Trasera&lt;/span&gt;&lt;span style=&quot;font-size: x-small&quot;&gt;&amp;nbsp; &amp;nbsp; &amp;nbsp; &amp;nbsp; &amp;nbsp; &amp;nbsp; &amp;nbsp; &amp;nbsp;&amp;nbsp;&lt;/span&gt;&lt;span style=&quot;font-size: x-small&quot;&gt;24V ~ 12V&amp;nbsp; 3 A - 14 AWG&lt;/span&gt;&lt;font size=&quot;1&quot;&gt;&lt;br&gt;&lt;/font&gt;" style="whiteSpace=wrap;html=1;strokeColor=#000000;gradientColor=none;fontFamily=Helvetica;fontSize=4;fontColor=#000000;fillColor=#FFFFFF;align=left;verticalAlign=top;" parent="REklVsk6FUK4t5RbrmTy-106" vertex="1">
          <mxGeometry x="25" y="850" width="335" height="243" as="geometry" />
        </mxCell>
        <mxCell id="REklVsk6FUK4t5RbrmTy-14" value="Fridge" style="" parent="0" />
        <mxCell id="REklVsk6FUK4t5RbrmTy-16" value="Light" style="" parent="0" />
        <mxCell id="mDpxC_ToR5QSuUpPD5QH-56" value="heaterAir" style="" parent="0" />
        <mxCell id="mDpxC_ToR5QSuUpPD5QH-43" value="Ventilacion" style="" parent="0" />
        <mxCell id="mDpxC_ToR5QSuUpPD5QH-17" value="water pump" style="" parent="0" />
        <mxCell id="mDpxC_ToR5QSuUpPD5QH-26" value="boiler" style="" parent="0" />
        <mxCell id="mDpxC_ToR5QSuUpPD5QH-71" value="heat" style="" parent="0" />
        <mxCell id="REklVsk6FUK4t5RbrmTy-39" value="Enchufes220V" parent="0" />
        <mxCell id="REklVsk6FUK4t5RbrmTy-109" value="Enchufe12V" parent="0" />
        <mxCell id="REklVsk6FUK4t5RbrmTy-131" value="PC" parent="0" />
        <mxCell id="REklVsk6FUK4t5RbrmTy-133" value="Monitor" parent="0" />
        <mxCell id="REklVsk6FUK4t5RbrmTy-23" value="Battery" parent="0" />
        <mxCell id="REklVsk6FUK4t5RbrmTy-36" value="Fuses" parent="0" />
        <mxCell id="3zew_IP8tUsAVHPyNGqZ-17" value="Shunt" parent="0" />
        <mxCell id="REklVsk6FUK4t5RbrmTy-34" value="contactor" parent="0" />
        <mxCell id="REklVsk6FUK4t5RbrmTy-29" value="CHR220V" parent="0" />
        <mxCell id="REklVsk6FUK4t5RbrmTy-32" value="CHRsolar" parent="0" />
        <mxCell id="REklVsk6FUK4t5RbrmTy-135" value="Radio" parent="0" />
        <mxCell id="REklVsk6FUK4t5RbrmTy-142" value="Alternador" parent="0" />
      </root>
    </mxGraphModel>
  </diagram>
</mxfile>
